HIERARCHY
ROOT Hips
{
	OFFSET 0.000000 0.000000 0.000000
	CHANNELS 6 Xposition Yposition Zposition Zrotation Yrotation Xrotation 
	JOINT LeftUpLeg_virtual
	{
		OFFSET 0.000000 0.000000 0.000000
		CHANNELS 3 Zrotation Yrotation Xrotation
		JOINT LeftUpLeg
		{
			OFFSET 8.479694 -4.795517 -0.379053
			CHANNELS 3 Zrotation Yrotation Xrotation
			JOINT LeftLeg
			{
				OFFSET 0.485052 -32.551468 0.112863
				CHANNELS 3 Zrotation Yrotation Xrotation
				JOINT LeftFoot
				{
					OFFSET 0.438033 -32.635670 -3.012641
					CHANNELS 3 Zrotation Yrotation Xrotation
					JOINT LeftToeBase
					{
						OFFSET 0.970169 -13.225353 11.864223
						CHANNELS 3 Zrotation Yrotation Xrotation
						End Site
						{
							OFFSET 0.000000 0.000000 0.000000
						}
					}
				}
			}
		}
	}
	JOINT RightUpLeg_virtual
	{
		OFFSET 0.000000 0.000000 0.000000
		CHANNELS 3 Zrotation Yrotation Xrotation
		JOINT RightUpLeg
		{
			OFFSET -8.479694 -4.795517 -0.379053
			CHANNELS 3 Zrotation Yrotation Xrotation
			JOINT RightLeg
			{
				OFFSET -0.484100 -32.551483 0.112903
				CHANNELS 3 Zrotation Yrotation Xrotation
				JOINT RightFoot
				{
					OFFSET -0.438985 -32.635651 -3.012681
					CHANNELS 3 Zrotation Yrotation Xrotation
					JOINT RightToeBase
					{
						OFFSET -0.970169 -13.225354 11.864223
						CHANNELS 3 Zrotation Yrotation Xrotation
						End Site
						{
							OFFSET 0.000000 0.000000 0.000000
						}
					}
				}
			}
		}
	}
	JOINT Spine_virtual
	{
		OFFSET 0.000000 0.000000 0.000000
		CHANNELS 3 Zrotation Yrotation Xrotation
		JOINT Spine
		{
			OFFSET 0.000000 7.722015 1.166203
			CHANNELS 3 Zrotation Yrotation Xrotation
			JOINT Spine1
			{
				OFFSET 0.000000 12.024086 0.248766
				CHANNELS 3 Zrotation Yrotation Xrotation
				JOINT Spine2
				{
					OFFSET -0.000000 11.503036 -0.491240
					CHANNELS 3 Zrotation Yrotation Xrotation
					JOINT Neck_virtual
					{
						OFFSET 0.000000 0.000000 0.000000
						CHANNELS 3 Zrotation Yrotation Xrotation
						JOINT Neck
						{
							OFFSET 0.000000 18.430687 -3.123054
							CHANNELS 3 Zrotation Yrotation Xrotation
							JOINT Head
							{
								OFFSET -0.000000 9.051071 1.034021
								CHANNELS 3 Zrotation Yrotation Xrotation
								End Site
								{
									OFFSET 0.000000 0.000000 0.000000
								}
							}
						}
					}
					JOINT LeftShoulder_virtual
					{
						OFFSET 0.000000 0.000000 0.000000
						CHANNELS 3 Zrotation Yrotation Xrotation
						JOINT LeftShoulder
						{
							OFFSET 6.197824 13.665230 -4.064723
							CHANNELS 3 Zrotation Yrotation Xrotation
							JOINT LeftArm
							{
								OFFSET 7.778132 -0.187073 -1.709282
								CHANNELS 3 Zrotation Yrotation Xrotation
								JOINT LeftForeArm
								{
									OFFSET 21.954697 0.000000 -2.041093
									CHANNELS 3 Zrotation Yrotation Xrotation
									JOINT LeftHand
									{
										OFFSET 22.992908 0.000000 -0.870901
										CHANNELS 3 Zrotation Yrotation Xrotation
										End Site
										{
											OFFSET 0.000000 0.000000 0.000000
										}
									}
								}
							}
						}
					}
					JOINT RightShoulder_virtual
					{
						OFFSET 0.000000 0.000000 0.000000
						CHANNELS 3 Zrotation Yrotation Xrotation
						JOINT RightShoulder
						{
							OFFSET -6.197824 13.665230 -4.064723
							CHANNELS 3 Zrotation Yrotation Xrotation
							JOINT RightArm
							{
								OFFSET -7.778132 -0.187073 -1.709282
								CHANNELS 3 Zrotation Yrotation Xrotation
								JOINT RightForeArm
								{
									OFFSET -21.954697 0.000000 -2.041093
									CHANNELS 3 Zrotation Yrotation Xrotation
									JOINT RightHand
									{
										OFFSET -22.992908 0.000000 -0.870901
										CHANNELS 3 Zrotation Yrotation Xrotation
										End Site
										{
											OFFSET 0.000000 0.000000 0.000000
										}
									}
								}
							}
						}
					}
				}
			}
		}
	}
}
MOTION
Frames: 8
Frame Time: 0.033333
-11.472215 65.631104 -31.130230 179.876706 0.432789 -179.894916 -0.907079 -3.229190 5.039717 -1.114560 7.266839 -72.330406 8.997963 2.449096 76.209536 -2.683816 -9.863596 -12.404914 0.000000 0.000000 0.000000 0.500684 -1.577494 7.978280 1.891370 -9.627884 -77.863118 1.176125 1.733911 77.923647 3.226512 3.483357 -7.794136 0.000000 0.000000 0.000000 1.238397 0.730614 0.334962 -1.239134 1.116720 1.169231 -0.520551 -2.183787 5.442169 0.011344 0.025499 0.011965 -0.672842 -1.489746 7.638160 -2.584459 4.158384 5.801539 0.000000 0.000000 0.000000 0.936126 -1.291549 3.511816 -3.247632 -0.268388 2.064006 -53.567213 -24.820977 26.782275 110.341057 -86.969461 -82.142116 0.000000 0.000000 0.000000 -2.658137 0.107614 2.849445 6.735334 2.040860 -2.978596 41.485896 26.799248 9.823270 168.795927 74.613267 160.376762 0.000000 0.000000 0.000000 
-11.460120 65.659081 -31.159321 179.961756 0.477813 -179.938178 -0.877391 -3.135094 5.099434 -1.041003 7.346714 -72.333739 8.980575 2.449601 76.197932 -2.704621 -9.915019 -12.412543 0.000000 0.000000 0.000000 0.531076 -1.509290 8.063266 1.937959 -9.597955 -77.844089 1.186507 1.723064 77.870044 3.179088 3.480828 -7.841381 0.000000 0.000000 0.000000 1.296144 0.867282 0.461133 -1.295689 1.038636 1.046197 -0.505665 -2.136578 5.451564 0.015897 -0.121937 0.017611 -0.703994 -1.741413 7.583263 -2.536972 4.175662 5.637365 0.000000 0.000000 0.000000 0.913011 -1.379022 3.438886 -3.408340 -0.402716 1.874096 -53.811751 -24.451259 27.267167 106.525263 -86.815372 -78.110761 0.000000 0.000000 0.000000 -2.693658 0.034339 2.792038 6.750144 1.837865 -3.388329 39.630827 29.005822 7.198105 169.889016 73.825029 161.436125 0.000000 0.000000 0.000000 
-11.448226 65.683655 -31.187159 179.904369 0.595314 -179.962931 -0.921564 -3.039207 5.163661 -1.024850 7.441184 -72.305175 8.972717 2.526435 76.190036 -2.705695 -9.955277 -12.419054 0.000000 0.000000 0.000000 0.489751 -1.437557 8.125998 1.915247 -9.537220 -77.829186 1.208777 1.780378 77.859935 3.139755 3.474388 -7.865772 0.000000 0.000000 0.000000 1.250318 0.896560 0.557149 -1.439831 0.885826 0.913817 -0.541263 -2.145651 5.409368 -0.014110 0.008189 0.022468 -0.663619 -1.582061 7.595706 -2.355073 4.040974 5.479419 0.000000 0.000000 0.000000 0.915544 -1.200260 3.475352 -3.643520 -0.751380 1.774351 -54.034754 -24.267452 27.691991 104.709621 -86.693522 -76.094352 0.000000 0.000000 0.000000 -2.681448 0.206175 2.722076 6.785851 1.439496 -3.889996 37.505713 31.275641 4.072787 170.972571 72.857799 162.503424 0.000000 0.000000 0.000000 
-11.444496 65.701530 -31.209221 179.969378 0.634775 -179.972971 -0.903390 -3.015862 5.203336 -0.965127 7.480037 -72.292163 8.974068 2.550776 76.196299 -2.714914 -9.998271 -12.422452 0.000000 0.000000 0.000000 0.506587 -1.432844 8.187976 1.978110 -9.545211 -77.830108 1.224901 1.771298 77.826481 3.122874 3.477249 -7.889887 0.000000 0.000000 0.000000 1.300991 0.920663 0.612912 -1.521685 0.773542 0.768021 -0.524110 -2.128415 5.386214 0.018280 -0.003443 0.021426 -0.712632 -1.609063 7.574798 -2.201654 3.954906 5.287690 0.000000 0.000000 0.000000 0.875197 -1.259404 3.418996 -3.910521 -0.874382 1.567118 -54.276836 -23.960420 28.008594 102.574128 -86.561453 -73.795160 0.000000 0.000000 0.000000 -2.736324 0.130061 2.732079 6.829756 1.137616 -4.385000 35.024445 33.657168 0.352913 171.868487 71.720770 163.372415 0.000000 0.000000 0.000000 
-11.446365 65.712387 -31.223740 179.969720 0.707070 -179.969215 -0.899320 -3.001542 5.239801 -0.928583 7.502559 -72.297505 8.990002 2.596820 76.198792 -2.685544 -9.999994 -12.447908 0.000000 0.000000 0.000000 0.509066 -1.429046 8.221166 2.032383 -9.548305 -77.859293 1.245334 1.760368 77.790650 3.143280 3.496197 -7.890165 0.000000 0.000000 0.000000 1.323902 0.922355 0.664932 -1.642325 0.691329 0.622090 -0.545692 -2.087008 5.358913 -0.019099 0.005740 0.028887 -0.691304 -1.504167 7.579975 -2.016027 3.830824 5.081598 0.000000 0.000000 0.000000 0.912056 -1.225108 3.433915 -4.101236 -1.114631 1.508088 -54.511671 -23.755941 28.293312 100.683743 -86.472688 -71.761888 0.000000 0.000000 0.000000 -2.726834 0.171711 2.692138 6.925089 0.755084 -4.897603 32.558057 35.758359 -3.314893 172.730689 70.492033 164.228989 0.000000 0.000000 0.000000 
-11.459044 65.718071 -31.226192 179.937222 0.790581 -179.972753 -0.910532 -3.019206 5.284666 -0.916869 7.513228 -72.311124 9.016610 2.659283 76.188294 -2.645714 -9.999248 -12.482120 0.000000 0.000000 0.000000 0.497494 -1.456549 8.255553 2.081039 -9.567948 -77.889217 1.266683 1.757033 77.753569 3.191820 3.519355 -7.861555 0.000000 0.000000 0.000000 1.322841 0.900717 0.729171 -1.765710 0.639023 0.481330 -0.537183 -2.035163 5.328714 0.011032 0.018932 0.003834 -0.735805 -1.524832 7.598950 -1.844877 3.712015 4.843668 0.000000 0.000000 0.000000 0.854253 -1.207927 3.442061 -4.272282 -1.328815 1.241011 -54.810021 -23.447788 28.517887 99.427439 -86.430259 -70.482122 0.000000 0.000000 0.000000 -2.811692 0.286662 2.648897 7.050143 0.216522 -5.405494 30.203213 37.624657 -6.864697 173.531119 69.270044 165.044664 0.000000 0.000000 0.000000 
-11.481918 65.720543 -31.223162 179.954243 0.842585 -179.907770 -0.887024 -3.074742 5.295912 -0.899031 7.507442 -72.379023 9.051848 2.695198 76.179914 -2.597705 -10.000556 -12.512699 0.000000 0.000000 0.000000 0.507435 -1.500625 8.252549 2.157075 -9.604226 -77.956665 1.281955 1.714077 77.686278 3.263470 3.542608 -7.815016 0.000000 0.000000 0.000000 1.385952 0.876675 0.763782 -1.866993 0.596056 0.295835 -0.551605 -2.014962 5.262684 -0.005479 0.003552 0.062057 -0.730725 -1.521224 7.539201 -1.668584 3.643503 4.557851 0.000000 0.000000 0.000000 0.836239 -1.111551 3.439860 -4.364002 -1.556831 1.098054 -55.015367 -23.257515 28.705728 97.598854 -86.242818 -68.603602 0.000000 0.000000 0.000000 -2.824848 0.242413 2.563140 7.192240 -0.057215 -5.824669 27.853503 39.263674 -10.384535 174.349813 68.129839 165.891539 0.000000 0.000000 0.000000 
-11.506177 65.725967 -31.216394 179.951839 0.860740 -179.902128 -0.883194 -3.154839 5.337736 -0.883099 7.493968 -72.396959 9.092146 2.734480 76.174293 -2.538451 -10.012149 -12.522195 0.000000 0.000000 0.000000 0.494215 -1.591651 8.275952 2.197399 -9.630276 -77.984224 1.293922 1.700991 77.623003 3.336714 3.545669 -7.779817 0.000000 0.000000 0.000000 1.430332 0.725205 0.850346 -1.950980 0.516915 0.142567 -0.546317 -1.995839 5.184937 0.016613 -0.018754 0.013594 -0.737373 -1.437058 7.518829 -1.512562 3.571401 4.214976 0.000000 0.000000 0.000000 0.852116 -1.059564 3.397225 -4.442440 -1.671735 0.986182 -55.210089 -22.946470 28.813457 96.769492 -86.103284 -67.601825 0.000000 0.000000 0.000000 -2.858319 0.418190 2.562568 7.334586 -0.385008 -6.223899 25.652451 40.787404 -13.716273 175.096216 67.129777 166.638570 0.000000 0.000000 0.000000 
